/* XPM */
static char * Hitool_xpm[] = {
"48 48 430 2",
"  	c None",
". 	c #FFFFFF",
"+ 	c #FEFEFE",
"@ 	c #FEFDFD",
"# 	c #FFFEFE",
"$ 	c #FEFCFC",
"% 	c #FEF7F7",
"& 	c #FCE8E8",
"* 	c #F8D2D2",
"= 	c #F4BABA",
"- 	c #F1A6A4",
"; 	c #EF9997",
"> 	c #EF9795",
", 	c #F1A09E",
"' 	c #F3B1B0",
") 	c #F6C8C8",
"! 	c #FAE0E0",
"~ 	c #FDF3F2",
"{ 	c #FEFBFB",
"] 	c #FDF5F5",
"^ 	c #F9D8D8",
"/ 	c #F09E9C",
"( 	c #E65F5C",
"_ 	c #E03834",
": 	c #DC201B",
"< 	c #DC1A15",
"[ 	c #DC1B17",
"} 	c #DC1C17",
"| 	c #DC1A16",
"1 	c #DF2D29",
"2 	c #E44D4A",
"3 	c #EC8582",
"4 	c #F5C5C4",
"5 	c #FCEEED",
"6 	c #FDF2F2",
"7 	c #F5C1C0",
"8 	c #E86B68",
"9 	c #DF2B27",
"0 	c #DB1814",
"a 	c #DC1C18",
"b 	c #DC1E1A",
"c 	c #DC1F1B",
"d 	c #DD201C",
"e 	c #DC1D19",
"f 	c #E44C49",
"g 	c #F0A19F",
"h 	c #FAE4E4",
"i 	c #FDF8F8",
"j 	c #F7CDCC",
"k 	c #E86A67",
"l 	c #DD221E",
"m 	c #DD2522",
"n 	c #E0332F",
"o 	c #DF2C28",
"p 	c #DD231F",
"q 	c #DD211D",
"r 	c #E24643",
"s 	c #F2ABAA",
"t 	c #FCECEB",
"u 	c #EF9A97",
"v 	c #DF302D",
"w 	c #DE2521",
"x 	c #EA7674",
"y 	c #FBE9E9",
"z 	c #E2403C",
"A 	c #E24541",
"B 	c #E96E6C",
"C 	c #E4504E",
"D 	c #DE2723",
"E 	c #DD1E19",
"F 	c #E86C6A",
"G 	c #F8D6D5",
"H 	c #FAE0DE",
"I 	c #EA7573",
"J 	c #E13B37",
"K 	c #F4B9B8",
"L 	c #F2A7A6",
"M 	c #DC1915",
"N 	c #E4504D",
"O 	c #F7D1D0",
"P 	c #FEFAFA",
"Q 	c #E9706E",
"R 	c #DB1713",
"S 	c #E24743",
"T 	c #F5BFBE",
"U 	c #FEF8F8",
"V 	c #F9D9D8",
"W 	c #E34A47",
"X 	c #F9DDDC",
"Y 	c #E5524F",
"Z 	c #DB1914",
"` 	c #DB1B17",
" .	c #F5BDBC",
"..	c #E13C39",
"+.	c #DD1F1B",
"@.	c #E03430",
"#.	c #F4B5B3",
"$.	c #FEF8F7",
"%.	c #F9DCDB",
"&.	c #E6605C",
"*.	c #DC1814",
"=.	c #E44E4B",
"-.	c #FBE6E5",
";.	c #FCEEEE",
">.	c #EA7A77",
",.	c #DB1510",
"'.	c #E03733",
").	c #FEFFFF",
"!.	c #FAE1E0",
"~.	c #E34D4A",
"{.	c #DC1B16",
"].	c #E03330",
"^.	c #F4B6B4",
"/.	c #FEF9F9",
"(.	c #FBE7E7",
"_.	c #E86E6B",
":.	c #FBE8E7",
"<.	c #FEF6F6",
"[.	c #ED8987",
"}.	c #DB1612",
"|.	c #E7615E",
"1.	c #FADEDE",
"2.	c #FDF3F4",
"3.	c #E55B58",
"4.	c #E13A37",
"5.	c #F6C7C6",
"6.	c #FDF4F4",
"7.	c #ED8D8B",
"8.	c #E55451",
"9.	c #F0A3A2",
"0.	c #DC201C",
"a.	c #EC8684",
"b.	c #FDF7F7",
"c.	c #E65B58",
"d.	c #DB1915",
"e.	c #E55350",
"f.	c #F5BEBD",
"g.	c #DE2B27",
"h.	c #E55955",
"i.	c #FCF0EF",
"j.	c #F1A9A8",
"k.	c #DC1E19",
"l.	c #DD2520",
"m.	c #F1A4A2",
"n.	c #E45350",
"o.	c #DB1A15",
"p.	c #EC8382",
"q.	c #FBE8E8",
"r.	c #E55855",
"s.	c #F2A9A8",
"t.	c #E13E3A",
"u.	c #F5C2C1",
"v.	c #F9D7D6",
"w.	c #E34945",
"x.	c #DF2B28",
"y.	c #F6C2C2",
"z.	c #F1A8A7",
"A.	c #E55754",
"B.	c #FFFDFD",
"C.	c #F09D9B",
"D.	c #DB1712",
"E.	c #E76663",
"F.	c #FAE3E2",
"G.	c #F3B6B4",
"H.	c #E03935",
"I.	c #E86967",
"J.	c #FDF0F0",
"K.	c #FBEAEA",
"L.	c #E55654",
"M.	c #FDF2F1",
"N.	c #EC8381",
"O.	c #EE908E",
"P.	c #EB807E",
"Q.	c #DD2521",
"R.	c #DE2825",
"S.	c #F4BCBB",
"T.	c #E55956",
"U.	c #DB1511",
"V.	c #E23F3C",
"W.	c #F6C3C2",
"X.	c #F9DCDC",
"Y.	c #E44F4C",
"Z.	c #EA7977",
"`.	c #EA7A78",
" +	c #E65E5A",
".+	c #FDF4F3",
"++	c #F8D3D2",
"@+	c #EC817F",
"#+	c #FCEFEF",
"$+	c #EE8E8C",
"%+	c #DE2925",
"&+	c #E13E3B",
"*+	c #FBE6E6",
"=+	c #E24542",
"-+	c #E76461",
";+	c #FEF9F8",
">+	c #F6C2C1",
",+	c #E34946",
"'+	c #EC8583",
")+	c #F9DBDA",
"!+	c #DD2420",
"~+	c #F4B8B7",
"{+	c #F7CAC9",
"]+	c #DE2A26",
"^+	c #E86966",
"/+	c #F4B6B5",
"(+	c #EB7F7D",
"_+	c #F7CFCF",
":+	c #EA7C79",
"<+	c #DF2E2A",
"[+	c #DE2924",
"}+	c #ED8988",
"|+	c #F1A6A5",
"1+	c #EA7775",
"2+	c #F8D0CF",
"3+	c #DE2D29",
"4+	c #DB1410",
"5+	c #E13F3C",
"6+	c #F0A2A0",
"7+	c #EF9896",
"8+	c #E34744",
"9+	c #E65F5D",
"0+	c #ED8886",
"a+	c #DE2C28",
"b+	c #EE9492",
"c+	c #F5C1BF",
"d+	c #E7605E",
"e+	c #E86D6B",
"f+	c #EA7270",
"g+	c #E55552",
"h+	c #F0A3A1",
"i+	c #DE2724",
"j+	c #E24441",
"k+	c #FCEBEB",
"l+	c #EA7472",
"m+	c #E03633",
"n+	c #F7CFCE",
"o+	c #EF9C9A",
"p+	c #F6C5C4",
"q+	c #E55653",
"r+	c #F7D0CF",
"s+	c #FCEAEA",
"t+	c #FEF7F8",
"u+	c #F2ADAB",
"v+	c #EA7875",
"w+	c #E13D3A",
"x+	c #F6CAC9",
"y+	c #FBE4E4",
"z+	c #E03936",
"A+	c #E34E4B",
"B+	c #FAE2E1",
"C+	c #E24440",
"D+	c #F4BAB9",
"E+	c #FDF1F1",
"F+	c #DE2622",
"G+	c #E03431",
"H+	c #E34845",
"I+	c #EF9996",
"J+	c #F5BFBD",
"K+	c #E96D6A",
"L+	c #EB7D7B",
"M+	c #FDF7F8",
"N+	c #DC1F1A",
"O+	c #F8D8D7",
"P+	c #E86563",
"Q+	c #E86C69",
"R+	c #F9D8D7",
"S+	c #E76361",
"T+	c #F09D9C",
"U+	c #DE2C29",
"V+	c #E55551",
"W+	c #FCECEC",
"X+	c #EB7E7C",
"Y+	c #E6605E",
"Z+	c #E0322E",
"`+	c #E7605D",
" @	c #E76563",
".@	c #FBE5E5",
"+@	c #F2AFAE",
"@@	c #F3B0AE",
"#@	c #E03531",
"$@	c #F9D9D9",
"%@	c #E24642",
"&@	c #E34B48",
"*@	c #E03632",
"=@	c #EA7B79",
"-@	c #E65957",
";@	c #EE9391",
">@	c #F2AAA8",
",@	c #E55A57",
"'@	c #F3AEAC",
")@	c #FBE2E2",
"!@	c #ED8C8A",
"~@	c #E76865",
"{@	c #E24543",
"]@	c #E5534F",
"^@	c #EE9392",
"/@	c #E13A36",
"(@	c #E65D5A",
"_@	c #FCEDED",
":@	c #F8D2D1",
"<@	c #ED8A88",
"[@	c #E2413E",
"}@	c #DE2824",
"|@	c #E76562",
"1@	c #FDF6F6",
"2@	c #F8CFCE",
"3@	c #F4BDBD",
"4@	c #F7CECE",
"5@	c #DF2E2B",
"6@	c #DC1F1C",
"7@	c #DB1813",
"8@	c #E4514D",
"9@	c #E4514E",
"0@	c #E65B59",
"a@	c #FAE3E3",
"b@	c #FBEAE9",
"c@	c #E34C48",
"d@	c #E97472",
"e@	c #EB817F",
"f@	c #ED8B88",
"g@	c #F2AEAD",
"h@	c #EB7C7A",
"i@	c #E44B48",
"j@	c #F5BCBB",
"k@	c #F8D7D6",
"l@	c #E13B38",
"m@	c #DD2622",
"n@	c #EC8481",
"o@	c #DF302C",
"p@	c #F1A2A1",
"q@	c #F4B7B6",
"r@	c #DC211E",
"s@	c #F8D3D3",
"t@	c #FAE6E5",
"u@	c #F6C4C3",
"v@	c #DD211C",
"w@	c #F6C0C0",
"x@	c #F7CCCB",
"y@	c #F3B4B2",
"z@	c #DF322E",
"A@	c #FADEDD",
"B@	c #DF2F2C",
"C@	c #EC8886",
"D@	c #EF9D9C",
"E@	c #E13F3B",
"F@	c #E1403C",
"G@	c #F4B5B4",
"H@	c #E7625F",
"I@	c #DD2421",
"J@	c #F7CBCA",
"K@	c #F4B4B2",
"L@	c #F2ACAB",
"M@	c #DB130F",
"N@	c #DC1D18",
"O@	c #DD2320",
"P@	c #F4BAB8",
"Q@	c #E23E3A",
"R@	c #EA7572",
"S@	c #FDF3F3",
"T@	c #E76664",
"U@	c #E7625E",
"V@	c #EA7876",
"W@	c #ED8E8C",
"X@	c #EB7D7A",
"Y@	c #FEFBFA",
"Z@	c #FBE3E3",
"`@	c #E65C5A",
" #	c #DF3430",
".#	c #F3B4B3",
"+#	c #E34C49",
"@#	c #DD2722",
"##	c #E34642",
"$#	c #F7C8C7",
"%#	c #E9716E",
"&#	c #FBE7E6",
"*#	c #F2ACAA",
"=#	c #E44B47",
"-#	c #EF9391",
";#	c #EE908F",
">#	c #FCEDEC",
",#	c #F9DEDD",
"'#	c #F4B5B5",
")#	c #EE9190",
"!#	c #EA7D7B",
"~#	c #E65C59",
"{#	c #DD1E1A",
"]#	c #F2B1B0",
"^#	c #DF332F",
"/#	c #E76360",
"(#	c #EB807D",
"_#	c #E65755",
":#	c #E86866",
"<#	c #EA7774",
"[#	c #EE918F",
"}#	c #E86D6A",
"|#	c #E0302D",
"1#	c #DD201B",
"2#	c #DF312D",
"3#	c #E2423F",
"4#	c #E03A36",
"5#	c #F8D4D3",
"6#	c #FBE5E4",
"7#	c #E97371",
"8#	c #DE2B28",
"9#	c #E2423E",
"0#	c #F6C6C5",
"a#	c #E97471",
"b#	c #E24240",
"c#	c #F5C5C3",
"d#	c #E65B57",
"e#	c #F8D0D0",
"f#	c #E1413E",
"g#	c #ED8684",
"h#	c #FADFDE",
"i#	c #EC8683",
"j#	c #DF2C29",
"k#	c #DC1D1A",
"l#	c #E65D5B",
"m#	c #DB1A16",
"n#	c #FBEBEB",
"o#	c #F4BCBC",
"p#	c #EA7C7A",
"q#	c #E86664",
"r#	c #F1A3A2",
"s#	c #FADDDC",
"t#	c #F9D6D5",
"u#	c #F3B6B5",
"v#	c #F8CFCD",
"w#	c #FCF1F1",
"                                                                                                ",
"                                    . + + @ @ @ @ @ @ + + #                                     ",
"                              . + $ % & * = - ; > , ' ) ! ~ { @ +                               ",
"                          . @ ] ^ / ( _ : < [ [ } [ | [ 1 2 3 4 5 { +                           ",
"                        @ 6 7 8 9 0 a b c d d d d d d c c e | d f g h { .                       ",
"                    . i j k l | m n o d c d d d d d d c d p q c e < r s 5 +                     ",
"                  # t u v 0 b w x y ' z a c d d d d c d A B C D c c a E F G { .                 ",
"                @ H I [ e d a J K . . L l b d d d c M N O . P Q l c d c R S T U .               ",
"              @ V ( 0 c d d | W X . . G Y Z d d d c ` ; . . .  ...a +.d d M @.#.$..             ",
"            + %.&.*.c d d +.| =.-.. . ;.>.,.+.d d [ '.T . ).. !.~.[ c d d d {.].^./..           ",
"          + (._.R c d d d c | N :.. . <.[.}.c d d R |.1.. . . 2.3.a c d d d d | 4.5.$           ",
"          6.7.[ c d d d d c [ 8.t . # . 9.0.b d c R a.b.. # . 6 c.a c d d d d d d.e.1.#         ",
"        $ f.g.e d d d d d c a h.i.. # . j.p b d k.l.m.. . # . :.n.a c d d d d d +.o.p.6..       ",
"      + q.r.| d d d d d d c a r.i.. . . s.p b d [ t.u.. ).. . v.w.[ +.d d d d d d b x.y.@       ",
"      { z.d c d d d d d d c a A.;.. . B.C.b b c D.E.F.. # + . G.H.a d d d d d d d d ` I.J.+     ",
"    + K.n.[ d d d d d d d c a L.;.. . M.N.,.c b b O.$ . . . . P.Q.b d d d d d d d d c R.u.@     ",
"    @ S.Q.c d d d d d d d c a T.J.. . :.Q U.d 0 V.W.. + + . X.Y.[ c d d d d d d d d d [ Z.% #   ",
"    b.`.[ d d d d d d d d c e  +.+. . ++N R | c @+#+. + . . $+%+e d d d d d d d d d d b &+!.+   ",
"  + *+=+b d d d d d d d d c b -+;+. . >+n c ,+'+)+. + + . G f | c d d d d d d b e e c c !+~+@   ",
"  + {+]+c d d d d d d d d c c ^+# . . /+=.(+_+. . + + . i :+p e c c d d d d [ d <+[+a c [ }+{   ",
"  @ |+c c d d d d d d d d b p 1+. . { 2+y.. . . + + . . |+3+4+d.0 M a c d a 5+(+6+7+8+q e 9+] + ",
"  P 0+[ d d d d d d d d d b a+b+. . @ . . . $ # . . . c+d+e+0+N.f+g+v [ | | h+$ . . K i+b j+k++ ",
"  b.l+e d d d d d d d d d a m+' . . . @ n+o+p+. + . 1.q+S g r+s+t+X u+v+w+M x+. . . y+]+b z+! + ",
"  ] I.e d d d d d d d d c e A+! . . B+b+,+C+D+. . E+@+Q.F+G+H+E.I+%.. /.J+K+L+1.M+F.P.!+N+].O++ ",
"  6.P+e d d d d d d d d c d Q+. . R+S+c d O.{ . . T+U+| b a | 4+l V+7+k+. W+T+X+`.Y+Q.c c Z+G + ",
"  ] 8 e d d d d d d d c | e k . G `+R [  @.@. ).+@..| d d d d d b R F+8 ^ . . @@H.0 b c c #@$@+ ",
"  i v+a d d d d d d b c %@&@*@=@-@a a F+;@. B.>@&+| c d d d +.+.d 0.e d.,@)+. . '@9 c 0.c 4.)@+ ",
"  { !@a d d d d d b p ~@>@{@| a a c c l ]@^@P./@| c d d d a a c d d d N+0 ^+t . . (@l 0.b 8+_@+ ",
"  @ s q c d d d c q r.:@<@a c c c c b b b !+q a c d d 0.R m+[@D c +.d d b a +@P . z.}@c e |@1@  ",
"  + 2@a+c d d c b *@3@4@5@a d +.a o.d b e b b c d d 6@7@8@O.9@q c +.d d d 0 0@K.. a@@.c a O.{   ",
"    b@c@e d d c Q.d@6 e@R c c e z+f@g@h@D b d d d d R i@j@'+%+e d d d d d b }@k@. U l@c m@f.@   ",
"    i n@} c d b o@p+*+z [ d e G+p@).. p+*@} d d d | m+~+q@w+[ d d d d d d b r@s@. 6./@e A t@+   ",
"    @ u@[+c c v@9@6.w@b c d e *@> x@y@_.!+b d d c a [.B+k a c d d d d d d e z@A@. O+B@[ n@/.    ",
"      ;. +[ c D C@+ D@U.+.d c p #@E@'.F+b d d d | F@x@G@*@[ d d d d d d d 0 H@_@. 7.I@U+J@@     ",
"      { K@!+b }@7.. L@M@b c d c e a N@b d d d +.R E.t ;@O@b d d d d d d b k.P@. )+Q@{.R@S@#     ",
"        _@T@| l U@. q.V@+.}.| b c d d d d d d c D.1+/.W@b e d d d d d c ,.X@Y@Z@`@+.].j @       ",
"        $ {+ #a n .#. E+p+'++#@#< }.0 [ b 0.d c | ##$#!.F 0.d.b c d c }.%#&#*#=#l [ -#1@        ",
"          b./ c c l@;#a@B.<.>#,#'#)#!#~#*@{#c d c q ..L+]#z.-+<+d c d %#.#_.^#N+*./#*++         ",
"          . 5 (#Z c ]+&+_#:#<#n@[#7.}#9@|#1#c d d c b D G+j+W 2#d c %+3#4#!+b 0 w.5#@           ",
"            # 6#7#o.b b q p Q.D g.8#D Q.q d c d d d c c e c p l d c q q b c Z 9#0#{             ",
"              + a@a#| b c c c c c N+c c c c d d d d d d d c c c c d c c +.0 b#c#P               ",
"                + y 7.q a d d d d d d d d d d d d d d d d d d d d d d b 0 d#e#{                 ",
"                  . S@' f#0 b d d d d d d d d d d d d d d d d d d c | F+g#a@@                   ",
"                      { h#i#j#0 b c d d d d d d d d d d d d d c [ k#l#W.] +                     ",
"                        + U v.C@4.[ a b c c d d d d +.c b e m#%+ @ .J.@                         ",
"                            + { n#o#p#&@8#e [ a a } [ p w+q#r#s#% @ #                           ",
"                                + + $ 1@y t#u@~+u#J+v#B+w#P @ +                                 ",
"                                        + + + + + + + + +                                       "};
